<?xml version="1.0" encoding="UTF-8"?>
<svg xmlns="http://www.w3.org/2000/svg" viewBox="0 0 800 1100" width="800" height="1100">
  <rect x="0" y="0" width="800" height="1100" fill="#ffffff"/>

  <!-- Furtgo Wortmarke oben -->
  <rect x="0" y="0" width="800" height="120" fill="#16213e"/>
  <text x="400" y="78" text-anchor="middle" font-family="Helvetica, Arial, sans-serif"
        font-size="56" font-weight="800" letter-spacing="4" fill="#FFD700">FURTGO</text>

  <!-- QR-Code zentral -->
  <svg x="100" y="170" width="600" height="600" viewBox="0 0 29 29" preserveAspectRatio="xMidYMid meet">
    <path fill="#ffffff" d="M0 0h27v27H0z"/><path stroke="#16213e" d="M1 1.5h7m3 0h2m1 0h1m2 0h1m1 0h7M1 2.5h1m5 0h1m3 0h7m1 0h1m5 0h1M1 3.5h1m1 0h3m1 0h1m1 0h1m5 0h1m1 0h1m1 0h1m1 0h3m1 0h1M1 4.5h1m1 0h3m1 0h1m1 0h1m1 0h1m1 0h2m1 0h1m2 0h1m1 0h3m1 0h1M1 5.5h1m1 0h3m1 0h1m1 0h1m1 0h1m2 0h1m2 0h1m1 0h1m1 0h3m1 0h1M1 6.5h1m5 0h1m1 0h1m4 0h3m2 0h1m5 0h1M1 7.5h7m1 0h1m1 0h1m1 0h1m1 0h1m1 0h1m1 0h7M9 8.5h1m1 0h2m3 0h2M1 9.5h1m1 0h5m6 0h4m1 0h5M2 10.5h1m5 0h1m3 0h2m3 0h2m1 0h1m3 0h1M1 11.5h1m1 0h5m4 0h3m1 0h1m2 0h2m1 0h1m1 0h2M2 12.5h1m2 0h2m1 0h1m2 0h1m1 0h1m1 0h1m3 0h1m5 0h1M1 13.5h3m3 0h4m2 0h7m1 0h1m1 0h3M1 14.5h1m6 0h1m1 0h2m2 0h1m2 0h2m1 0h1m1 0h1m1 0h1M1 15.5h1m1 0h2m1 0h2m2 0h1m1 0h2m2 0h2m1 0h4m1 0h2M1 16.5h1m3 0h2m4 0h2m3 0h2m1 0h3m3 0h1M1 17.5h1m2 0h1m1 0h2m3 0h2m3 0h6m1 0h1M9 18.5h2m2 0h2m2 0h1m3 0h2M1 19.5h7m3 0h1m2 0h2m1 0h1m1 0h1m1 0h1m1 0h3M1 20.5h1m5 0h1m1 0h3m1 0h2m2 0h1m3 0h2m1 0h2M1 21.5h1m1 0h3m1 0h1m1 0h3m1 0h1m1 0h7m1 0h3M1 22.5h1m1 0h3m1 0h1m1 0h1m6 0h2m1 0h1m1 0h5M1 23.5h1m1 0h3m1 0h1m1 0h1m2 0h2m8 0h2m1 0h1M1 24.5h1m5 0h1m2 0h3m2 0h4m1 0h3m2 0h1M1 25.5h7m1 0h2m1 0h1m7 0h6"/>
  </svg>

  <!-- Trennstrich -->
  <rect x="200" y="820" width="400" height="3" fill="#FFD700"/>

  <!-- Label-Block -->
  <text x="400" y="900" text-anchor="middle" font-family="Helvetica, Arial, sans-serif"
        font-size="42" font-weight="700" fill="#16213e">iOS Fahrgast / Fahrer</text>
  <text x="400" y="960" text-anchor="middle" font-family="Helvetica, Arial, sans-serif"
        font-size="42" font-weight="700" fill="#16213e">(coming soon)</text>

  <!-- URL klein unten -->
  <text x="400" y="1050" text-anchor="middle" font-family="Helvetica, Arial, sans-serif"
        font-size="22" fill="#666">furtgo.ch</text>
</svg>